<svg xmlns="http://www.w3.org/2000/svg" width="144" height="29" viewBox="0 0 144 29">
    <path fill="#ffffff" fill-rule="evenodd" d="M26.514 20.504a4.646 4.646 0 1 1-6.57 6.57L1.363 8.497a4.646 4.646 0 1 1 6.57-6.57v-.001l18.58 18.58zM4.646 19.146a4.646 4.646 0 1 1 0 9.293 4.646 4.646 0 0 1 0-9.293zM23.231.561a4.646 4.646 0 1 1 0 9.293 4.646 4.646 0 0 1 0-9.293zM37.357 9.22h2.715v1.678c.74-1.234 2.146-1.925 3.75-1.925 2.863 0 4.714 2.023 4.714 5.157v7.428H45.82v-6.984c0-1.95-.987-3.134-2.566-3.134-1.801 0-3.183 1.407-3.183 4.047v6.07h-2.715V9.22zm20.071 2.22c-2.196 0-3.677 1.728-3.677 3.949 0 2.22 1.48 3.948 3.677 3.948 2.196 0 3.677-1.728 3.677-3.948 0-2.221-1.48-3.949-3.677-3.949zm-.494-2.467c1.777 0 3.258.913 3.949 1.9V9.22h2.714v12.338h-2.714v-1.654c-.691.988-2.172 1.9-3.949 1.9-3.38 0-5.947-2.887-5.947-6.415 0-3.529 2.567-6.416 5.947-6.416zm10.34.247h2.715v2.196c.468-1.407 1.85-2.32 3.257-2.32.345 0 .69.025 1.06.099v2.788a4.225 4.225 0 0 0-1.356-.222c-1.555 0-2.961 1.308-2.961 3.776v6.02h-2.715V9.22zm9.516 0h2.715v2.196c.469-1.407 1.85-2.32 3.257-2.32.346 0 .691.025 1.061.099v2.788a4.225 4.225 0 0 0-1.357-.222c-1.555 0-2.961 1.308-2.961 3.776v6.02H76.79V9.22zm14.928 2.22c-2.196 0-3.677 1.728-3.677 3.949 0 2.22 1.481 3.948 3.677 3.948 2.196 0 3.677-1.728 3.677-3.948 0-2.221-1.48-3.949-3.677-3.949zm-.493-2.467c1.776 0 3.257.913 3.948 1.9V9.22h2.714v12.338h-2.714v-1.654c-.69.988-2.172 1.9-3.948 1.9-3.38 0-5.947-2.887-5.947-6.415 0-3.529 2.566-6.416 5.947-6.416zm15.834 12.708c-2.37 0-4.22-1.308-4.22-4.096v-5.947h-2.566V9.22h2.566V5.79h2.714v3.43h3.53v2.418h-3.53v5.503c0 1.53.666 2.097 2.073 2.097.518 0 1.061-.098 1.456-.247v2.419c-.543.172-1.184.271-2.023.271zm5.008-.123V9.22h2.714v12.338h-2.714zm1.357-15.028a1.838 1.838 0 0 1-1.826-1.826c0-.987.839-1.802 1.826-1.802 1.012 0 1.801.815 1.801 1.802 0 1.012-.79 1.826-1.801 1.826zm3.7 2.69h3.01l3.751 8.636 3.776-8.636h3.035l-5.601 12.338H122.7L117.124 9.22zm17.077 4.91h6.81c-.419-1.999-1.826-2.887-3.331-2.887-1.703 0-3.11.987-3.48 2.887zm3.528 7.675c-3.676 0-6.317-2.715-6.317-6.416 0-3.652 2.542-6.416 6.342-6.416 3.775 0 6.416 2.887 6.17 7.082h-9.822c.099 1.875 1.53 3.356 3.726 3.356 1.357 0 2.542-.543 3.11-1.727h2.837c-.69 2.32-2.912 4.12-6.046 4.12z"/>
</svg>
